<?xml version="1.0" encoding="UTF-8" standalone="no"?><!DOCTYPE svg PUBLIC "-//W3C//DTD SVG 1.1//EN" "http://www.w3.org/Graphics/SVG/1.1/DTD/svg11.dtd"><svg width="100%" height="100%" viewBox="0 0 267 267" version="1.1" xmlns="http://www.w3.org/2000/svg" xmlns:xlink="http://www.w3.org/1999/xlink" xml:space="preserve" xmlns:serif="http://www.serif.com/" style="fill-rule:evenodd;clip-rule:evenodd;stroke-linejoin:round;stroke-miterlimit:2;"><path d="M266.667,25c-0,-13.798 -11.202,-25 -25,-25l-216.667,0c-13.798,0 -25,11.202 -25,25l-0,216.667c-0,13.798 11.202,25 25,25l216.667,-0c13.798,-0 25,-11.202 25,-25l-0,-216.667Z" style="fill:#fff;"/><path d="M154.98,92.683c7.154,-0 13.008,-5.854 13.008,-13.008c-0,-7.155 -5.854,-13.008 -13.008,-13.008c-7.155,-0 -13.008,5.853 -13.008,13.008c-0,7.154 5.853,13.008 13.008,13.008Zm-68.293,42.276c-18.212,0 -32.52,14.309 -32.52,32.521c-0,18.211 14.308,32.52 32.52,32.52c18.211,-0 32.521,-14.309 32.521,-32.52c-0,-18.212 -14.31,-32.521 -32.521,-32.521Zm0,55.285c-12.358,-0 -22.764,-10.406 -22.764,-22.764c-0,-12.358 10.406,-22.765 22.764,-22.765c12.358,0 22.764,10.407 22.764,22.765c0,12.358 -10.406,22.764 -22.764,22.764Zm37.723,-65.041l15.61,-15.61l5.204,5.204c8.455,8.455 19.512,13.658 33.17,13.658l0,-13.008c-9.756,0 -17.561,-3.902 -23.414,-9.756l-12.358,-12.358c-3.252,-2.601 -6.504,-3.902 -10.407,-3.902c-3.902,-0 -7.154,1.301 -9.105,3.902l-18.212,18.212c-2.601,2.601 -3.902,5.853 -3.902,9.105c-0,3.903 1.301,7.155 3.902,9.106l20.813,18.212l0,32.52l13.009,-0l-0,-40.325l-14.31,-14.96Zm53.334,9.756c-18.212,0 -32.52,14.309 -32.52,32.521c-0,18.211 14.309,32.52 32.52,32.52c18.211,0 32.52,-14.309 32.52,-32.52c0,-18.212 -14.309,-32.521 -32.52,-32.521Zm-0,55.285c-12.358,-0 -22.764,-10.406 -22.764,-22.764c-0,-12.358 10.406,-22.765 22.764,-22.765c12.358,0 22.764,10.407 22.764,22.765c-0,12.358 -10.406,22.764 -22.764,22.764Z" style="fill:#ff0101;fill-rule:nonzero;"/></svg>