<?xml version="1.0" encoding="UTF-8" standalone="no"?><!DOCTYPE svg PUBLIC "-//W3C//DTD SVG 1.1//EN" "http://www.w3.org/Graphics/SVG/1.1/DTD/svg11.dtd"><svg width="100%" height="100%" viewBox="0 0 250 250" version="1.1" xmlns="http://www.w3.org/2000/svg" xmlns:xlink="http://www.w3.org/1999/xlink" xml:space="preserve" xmlns:serif="http://www.serif.com/" style="fill-rule:evenodd;clip-rule:evenodd;stroke-linejoin:round;stroke-miterlimit:2;"><path d="M250,25c0,-13.798 -11.202,-25 -25,-25l-200,0c-13.798,0 -25,11.202 -25,25l0,200c0,13.798 11.202,25 25,25l200,0c13.798,0 25,-11.202 25,-25l0,-200Z" style="fill:#f00;fill-opacity:0.07;"/><path d="M132.938,120.276c-0.001,0 3.885,-22.854 -11.969,-32.776c-0.478,7.942 -4.316,15.305 -10.552,20.245c-6.771,5.953 -19.506,19.338 -19.37,33.609c-0.1,12.444 6.866,23.868 17.974,29.479c0.393,-5.564 3.01,-10.736 7.26,-14.349c3.602,-2.769 5.94,-6.87 6.49,-11.38c9.482,5.041 15.614,14.696 16.146,25.422l-0,0.068c10.48,-4.801 17.378,-15.077 17.854,-26.594c1.125,-13.406 -6.219,-31.635 -12.735,-37.594c-2.459,5.492 -6.28,10.266 -11.099,13.87Z" style="fill:#f00;fill-rule:nonzero;"/></svg>