<?xml version="1.0" encoding="UTF-8" standalone="no"?><!DOCTYPE svg PUBLIC "-//W3C//DTD SVG 1.1//EN" "http://www.w3.org/Graphics/SVG/1.1/DTD/svg11.dtd"><svg width="100%" height="100%" viewBox="0 0 250 250" version="1.1" xmlns="http://www.w3.org/2000/svg" xmlns:xlink="http://www.w3.org/1999/xlink" xml:space="preserve" xmlns:serif="http://www.serif.com/" style="fill-rule:evenodd;clip-rule:evenodd;stroke-linejoin:round;stroke-miterlimit:2;"><path d="M250,25c0,-13.798 -11.202,-25 -25,-25l-200,0c-13.798,0 -25,11.202 -25,25l0,200c0,13.798 11.202,25 25,25l200,0c13.798,0 25,-11.202 25,-25l0,-200Z" style="fill:#f9ce23;fill-opacity:0.1;"/><path d="M156.906,146.25c-1.802,3.99 -2.661,5.771 -4.984,9.297c-3.234,4.922 -7.792,11.057 -13.443,11.109c-5.021,0.047 -6.312,-3.265 -13.125,-3.229c-6.812,0.037 -8.239,3.287 -13.26,3.24c-5.651,-0.052 -9.969,-5.589 -13.209,-10.516c-9.041,-13.771 -9.989,-29.927 -4.411,-38.516c3.964,-6.109 10.219,-9.677 16.104,-9.677c5.99,0 9.75,3.282 14.703,3.282c4.802,-0 7.729,-3.287 14.657,-3.287c5.234,0 10.781,2.849 14.729,7.771c-12.943,7.099 -10.839,25.583 2.239,30.526Z" style="fill:#fdcc0c;fill-rule:nonzero;"/><path d="M95.178,146.25c1.802,3.99 2.662,5.771 4.985,9.297c3.234,4.922 7.792,11.057 13.442,11.109c5.021,0.047 6.313,-3.265 13.125,-3.229c6.813,0.037 8.24,3.287 13.261,3.24c5.651,-0.052 9.969,-5.589 13.208,-10.516c9.042,-13.771 9.99,-29.927 4.412,-38.516c-3.964,-6.109 -10.219,-9.677 -16.104,-9.677c-5.99,0 -9.75,3.282 -14.704,3.282c-4.802,-0 -7.729,-3.287 -14.656,-3.287c-5.234,0 -10.781,2.849 -14.729,7.771c12.943,7.099 10.839,25.583 -2.24,30.526Z" style="fill:#fdcc0c;fill-rule:nonzero;"/><path d="M137.521,97.39c2.844,-3.645 5,-8.796 4.213,-14.057c-4.64,0.318 -10.067,3.271 -13.239,7.12c-2.875,3.495 -5.25,8.677 -4.328,13.714c5.067,0.156 10.307,-2.87 13.354,-6.777Z" style="fill:#fdcc0c;fill-rule:nonzero;"/></svg>