<?xml version="1.0" encoding="UTF-8" standalone="no"?><!DOCTYPE svg PUBLIC "-//W3C//DTD SVG 1.1//EN" "http://www.w3.org/Graphics/SVG/1.1/DTD/svg11.dtd"><svg width="100%" height="100%" viewBox="0 0 267 267" version="1.1" xmlns="http://www.w3.org/2000/svg" xmlns:xlink="http://www.w3.org/1999/xlink" xml:space="preserve" xmlns:serif="http://www.serif.com/" style="fill-rule:evenodd;clip-rule:evenodd;stroke-linejoin:round;stroke-miterlimit:2;"><path d="M266.667,25c-0,-13.798 -11.202,-25 -25,-25l-216.667,0c-13.798,0 -25,11.202 -25,25l-0,216.667c-0,13.798 11.202,25 25,25l216.667,-0c13.798,-0 25,-11.202 25,-25l-0,-216.667Z" style="fill:#fff;"/><path d="M190.467,152.4l9.533,-9.533l-9.533,-9.534l-23.8,23.8l-57.134,-57.133l23.8,-23.8l-9.533,-9.533l-9.533,9.533l-9.534,-9.533l-14.266,14.266l-9.534,-9.533l-9.533,9.533l9.533,9.534l-14.266,14.266l9.533,9.534l-9.533,9.533l9.533,9.533l23.8,-23.8l57.133,57.134l-23.8,23.8l9.534,9.533l9.533,-9.533l9.533,9.533l14.267,-14.267l9.533,9.534l9.534,-9.534l-9.534,-9.533l14.267,-14.267l-9.533,-9.533Z" style="fill:#ff0101;fill-rule:nonzero;"/></svg>