<?xml version="1.0" encoding="UTF-8" standalone="no"?><!DOCTYPE svg PUBLIC "-//W3C//DTD SVG 1.1//EN" "http://www.w3.org/Graphics/SVG/1.1/DTD/svg11.dtd"><svg width="100%" height="100%" viewBox="0 0 250 250" version="1.1" xmlns="http://www.w3.org/2000/svg" xmlns:xlink="http://www.w3.org/1999/xlink" xml:space="preserve" xmlns:serif="http://www.serif.com/" style="fill-rule:evenodd;clip-rule:evenodd;stroke-linejoin:round;stroke-miterlimit:2;"><path d="M250,25c0,-13.798 -11.202,-25 -25,-25l-200,0c-13.798,0 -25,11.202 -25,25l0,200c0,13.798 11.202,25 25,25l200,0c13.798,0 25,-11.202 25,-25l0,-200Z" style="fill:#fd5181;fill-opacity:0.1;"/><path d="M88.542,150c-0,8.854 6.77,15.625 15.625,15.625l41.666,0c8.855,0 15.625,-6.771 15.625,-15.625l-72.916,0Z" style="fill:#fd5181;fill-rule:nonzero;"/><path d="M161.458,139.583l-72.916,0c-3.125,0 -5.209,-2.083 -5.209,-5.208c0,-3.125 2.084,-5.208 5.209,-5.208l72.916,-0c3.125,-0 5.209,2.083 5.209,5.208c-0,3.125 -2.084,5.208 -5.209,5.208Z" style="fill:#fd5181;fill-rule:nonzero;"/><path d="M130.208,87.5l-10.416,0c-17.188,0 -31.25,14.063 -31.25,31.25l72.916,0c0,-17.187 -14.062,-31.25 -31.25,-31.25Zm-15.625,20.833c-3.125,0 -5.208,-2.083 -5.208,-5.208c0,-3.125 2.083,-5.208 5.208,-5.208c3.125,-0 5.209,2.083 5.209,5.208c-0,3.125 -2.084,5.208 -5.209,5.208Zm20.834,0c-0,3.125 2.083,5.209 5.208,5.209c3.125,-0 5.208,-2.084 5.208,-5.209c0,-3.125 -2.083,-5.208 -5.208,-5.208c-3.125,0 -5.208,2.083 -5.208,5.208Z" style="fill:#fd5181;"/></svg>