<?xml version="1.0" encoding="UTF-8" standalone="no"?><!DOCTYPE svg PUBLIC "-//W3C//DTD SVG 1.1//EN" "http://www.w3.org/Graphics/SVG/1.1/DTD/svg11.dtd"><svg width="100%" height="100%" viewBox="0 0 742 254" version="1.1" xmlns="http://www.w3.org/2000/svg" xmlns:xlink="http://www.w3.org/1999/xlink" xml:space="preserve" xmlns:serif="http://www.serif.com/" style="fill-rule:evenodd;clip-rule:evenodd;stroke-linejoin:round;stroke-miterlimit:2;"><path d="M300.921,156.471c-4.713,-2.113 -8.118,-5.284 -10.737,-9.247c-2.619,-3.963 -3.929,-8.455 -4.19,-13.739l12.309,0c0.261,4.492 2.357,8.19 5.499,11.097c3.143,2.906 7.857,4.227 13.094,4.227c4.714,0 8.381,-1.057 11.262,-2.906c2.88,-2.114 4.452,-4.756 4.452,-8.455c-0,-2.642 -0.786,-4.755 -2.357,-6.341c-1.572,-1.585 -3.667,-2.642 -6.285,-3.434c-2.619,-0.793 -6.548,-1.586 -11.524,-2.643l-0.524,0c-4.713,-0.792 -8.904,-1.849 -12.308,-3.434c-3.404,-1.586 -6.285,-3.699 -8.642,-6.606c-2.095,-2.906 -3.143,-6.869 -3.143,-11.625c0,-4.491 1.048,-8.454 3.404,-11.889c2.357,-3.434 5.5,-6.076 9.69,-8.19c4.191,-1.85 8.904,-2.906 14.142,-2.906c5.5,-0 10.476,1.056 14.666,3.17c4.452,2.114 7.856,4.756 10.214,8.455c2.618,3.698 3.928,7.926 3.928,12.417l-12.309,0c-0.524,-3.963 -2.357,-7.133 -5.237,-9.511c-2.881,-2.378 -6.81,-3.699 -11.262,-3.699c-4.452,0 -8.118,1.057 -10.737,2.906c-2.619,1.85 -3.928,4.756 -3.928,8.191c-0,2.642 0.785,4.491 2.357,6.076c1.571,1.321 3.666,2.643 6.285,3.435c2.619,0.793 6.285,1.585 11.261,2.642c4.976,0.793 9.166,2.114 12.832,3.435c3.667,1.321 6.548,3.699 8.905,6.605c2.357,2.906 3.404,6.869 3.404,11.625c0,4.492 -1.309,8.455 -3.666,12.153c-2.357,3.7 -5.762,6.342 -10.214,8.455c-4.452,2.114 -9.166,2.906 -14.666,2.906c-6.023,0.265 -11.523,-0.792 -15.975,-3.17Z" style="fill:#e60000;fill-rule:nonzero;"/><path d="M399.129,105.215c3.929,2.378 7.071,5.548 9.428,10.04c2.357,4.491 3.405,9.511 3.405,15.588c-0,5.812 -1.048,10.832 -3.405,15.06c-2.357,4.491 -5.499,7.926 -9.428,10.304c-3.928,2.378 -8.642,3.698 -13.618,3.698c-4.976,0 -9.166,-1.056 -12.571,-3.17c-3.404,-2.113 -5.761,-5.02 -7.594,-8.455l1.571,-2.642l0,35.932l-11.785,0l0,-78.997l10.214,-0l2.357,14.003l-2.619,-2.642c2.095,-3.435 4.714,-6.342 7.856,-8.719c3.405,-2.114 7.333,-3.171 12.309,-3.171c5.238,-0.264 9.69,1.057 13.88,3.171Zm-24.355,8.983c-2.619,1.585 -4.452,3.699 -5.762,6.605c-1.309,2.906 -2.095,6.077 -2.095,9.776c0,3.698 0.786,7.133 2.095,10.039c1.31,2.907 3.405,5.02 5.762,6.87c2.619,1.585 5.237,2.378 8.642,2.378c3.143,-0 6.023,-0.793 8.642,-2.378c2.619,-1.586 4.452,-3.963 5.762,-6.605c1.309,-2.907 2.095,-6.077 2.095,-9.776c0,-3.699 -0.786,-6.87 -2.095,-9.776c-1.31,-2.906 -3.143,-5.019 -5.762,-6.605c-2.619,-1.585 -5.499,-2.378 -8.642,-2.378c-3.405,-0.528 -6.286,0.264 -8.642,1.85Z" style="fill:#e60000;fill-rule:nonzero;"/><path d="M433.175,156.207c-4.454,-2.378 -7.858,-5.813 -10.212,-10.304c-2.359,-4.492 -3.667,-9.512 -3.667,-15.06c-0,-5.813 1.308,-10.833 3.667,-15.324c2.354,-4.491 5.758,-7.662 10.212,-10.04c4.45,-2.378 9.429,-3.699 14.929,-3.699c5.759,0 10.738,1.321 14.925,3.699c4.454,2.378 7.859,5.813 10.213,10.04c2.358,4.491 3.666,9.511 3.666,15.324c0,5.812 -1.308,10.832 -3.666,15.324c-2.354,4.491 -5.759,7.662 -10.213,10.304c-4.45,2.378 -9.429,3.699 -14.925,3.699c-5.762,-0.265 -10.737,-1.585 -14.929,-3.963Zm23.571,-8.983c2.617,-1.586 4.45,-3.699 5.758,-6.605c1.313,-2.907 2.096,-6.077 2.096,-9.776c0,-3.699 -0.783,-6.869 -2.096,-9.776c-1.308,-2.906 -3.141,-5.019 -5.758,-6.605c-2.621,-1.585 -5.5,-2.378 -8.642,-2.378c-3.146,0 -6.287,0.793 -8.646,2.378c-2.616,1.586 -4.45,3.699 -5.758,6.605c-1.312,2.907 -2.096,6.077 -2.096,9.776c0,3.699 0.784,6.869 2.096,9.776c1.308,2.906 3.404,5.019 5.758,6.605c2.621,1.585 5.5,2.378 8.646,2.378c3.142,-0 6.284,-0.793 8.642,-2.378Z" style="fill:#e60000;fill-rule:nonzero;"/><path d="M496.813,102.573l2.095,14.003l-2.358,-2.642c1.575,-3.435 3.929,-6.341 6.55,-8.191c2.617,-2.113 6.546,-2.906 11.521,-2.906l2.621,0l-0,11.097l-5.238,-0c-4.975,-0 -8.383,1.585 -10.737,4.756c-2.096,3.17 -3.404,7.397 -3.404,12.417l-0,28.535l-11.788,-0l0,-57.069l10.738,-0Z" style="fill:#e60000;fill-rule:nonzero;"/><path d="M525.096,86.456l11.787,0l0,15.853l13.617,-0l0,10.304l-13.617,-0l0,29.591c0,2.378 0.521,3.963 1.309,4.756c0.787,1.056 2.358,1.321 4.454,1.321l9.162,-0l0,10.568l-11.52,-0c-5.238,-0 -9.167,-1.321 -11.525,-3.699c-2.355,-2.378 -3.667,-6.341 -3.667,-11.625l-0,-57.069Z" style="fill:#e60000;fill-rule:nonzero;"/><path d="M571.45,156.471c-4.712,-2.113 -8.117,-5.284 -10.737,-9.247c-2.617,-3.963 -3.925,-8.455 -4.188,-13.739l12.308,0c0.263,4.492 2.355,8.19 5.5,11.097c3.142,2.906 7.855,4.227 13.092,4.227c4.717,0 8.383,-1.057 11.263,-2.906c2.879,-2.114 4.454,-4.756 4.454,-8.455c-0,-2.642 -0.788,-4.755 -2.359,-6.341c-1.57,-1.585 -3.666,-2.642 -6.287,-3.434c-2.617,-0.793 -6.546,-1.586 -11.521,-2.643l-0.525,0c-4.712,-0.792 -8.904,-1.849 -12.308,-3.434c-3.404,-1.586 -6.284,-3.699 -8.642,-6.606c-2.096,-2.906 -3.142,-6.869 -3.142,-11.625c0,-4.491 1.046,-8.454 3.405,-11.889c2.354,-3.434 5.5,-6.076 9.687,-8.19c4.192,-1.85 8.904,-2.906 14.142,-2.906c5.5,-0 10.479,1.056 14.666,3.17c4.455,2.114 7.859,4.756 10.213,8.455c2.621,3.698 3.929,7.926 3.929,12.417l-12.308,0c-0.525,-3.963 -2.359,-7.133 -5.238,-9.511c-2.879,-2.378 -6.808,-3.699 -11.262,-3.699c-4.45,0 -8.117,1.057 -10.738,2.906c-2.616,1.85 -3.925,4.756 -3.925,8.191c0,2.642 0.784,4.491 2.354,6.076c1.571,1.321 3.667,2.643 6.288,3.435c2.617,0.793 6.283,1.585 11.258,2.642c4.979,0.793 9.167,2.114 12.834,3.435c3.666,1.321 6.55,3.699 8.904,6.605c2.358,2.906 3.404,6.869 3.404,11.625c-0,4.492 -1.308,8.455 -3.667,12.153c-2.354,3.7 -5.758,6.342 -10.212,8.455c-4.45,2.114 -9.167,2.906 -14.667,2.906c-6.021,0.265 -11.258,-0.792 -15.975,-3.17Z" style="fill:#e60000;fill-rule:nonzero;"/><path d="M637.446,156.207c-4.45,-2.378 -7.854,-5.813 -10.213,-10.04c-2.358,-4.492 -3.666,-9.512 -3.666,-15.324c-0,-5.813 1.05,-11.097 3.404,-15.324c2.358,-4.227 5.5,-7.662 9.692,-10.04c4.187,-2.378 8.904,-3.699 14.404,-3.699c5.5,0 10.212,1.057 14.404,3.171c4.187,2.113 7.333,5.284 9.687,9.511c2.359,4.228 3.667,8.983 3.667,14.267l0,2.114c0,0.792 0,1.585 -0.262,2.378l-42.425,-0l-0,0.528c0.262,3.171 0.787,6.077 2.095,8.455c1.309,2.378 3.142,4.227 5.5,5.548c2.355,1.321 4.975,2.114 8.117,2.114c3.667,-0 6.808,-0.793 9.167,-2.642c2.621,-1.85 4.191,-4.228 4.975,-7.398l12.05,-0c-0.788,3.699 -2.096,7.134 -4.454,10.04c-2.359,2.906 -5.238,5.284 -8.642,7.133c-3.667,1.586 -7.596,2.642 -12.046,2.642c-6.025,0.265 -11.262,-1.056 -15.454,-3.434Zm7.071,-43.066c-2.092,1.057 -3.925,2.642 -5.238,4.756c-1.308,2.113 -2.354,4.227 -2.616,6.869l30.116,0c-0.525,-4.227 -2.096,-7.662 -4.712,-9.776c-2.621,-2.377 -6.288,-3.434 -10.479,-3.434c-2.617,-0.264 -4.975,0.264 -7.071,1.585Z" style="fill:#e60000;fill-rule:nonzero;"/><path d="M700.038,156.207c-4.45,-2.378 -7.855,-5.813 -10.213,-10.04c-2.358,-4.492 -3.667,-9.512 -3.667,-15.324c0,-5.813 1.046,-11.097 3.405,-15.324c2.358,-4.227 5.5,-7.662 9.691,-10.04c4.188,-2.378 8.904,-3.699 14.404,-3.699c5.5,0 10.213,1.057 14.405,3.171c4.187,2.113 7.329,5.284 9.687,9.511c2.358,4.228 3.667,8.983 3.667,14.267l-0,2.114c-0,0.792 -0,1.585 -0.263,2.378l-42.425,-0l0,0.528c0.263,3.171 0.788,6.077 2.096,8.455c1.308,2.378 3.142,4.227 5.5,5.548c2.354,1.321 4.975,2.114 8.117,2.114c3.666,-0 6.808,-0.793 9.166,-2.642c2.621,-1.85 4.192,-4.228 4.975,-7.398l12.046,-0c-0.783,3.699 -2.091,7.134 -4.45,10.04c-2.358,2.906 -5.237,5.284 -8.641,7.133c-3.667,1.586 -7.596,2.642 -12.046,2.642c-6.025,0.265 -11,-1.056 -15.454,-3.434Zm7.07,-43.066c-2.095,1.057 -3.929,2.642 -5.237,4.756c-1.308,2.113 -2.354,4.227 -2.617,6.869l30.117,0c-0.525,-4.227 -2.096,-7.662 -4.717,-9.776c-2.616,-2.377 -6.283,-3.434 -10.475,-3.434c-2.616,-0.264 -4.975,0.264 -7.071,1.585Z" style="fill:#e60000;fill-rule:nonzero;"/><path d="M123.076,240.428c65.809,-0 119.159,-53.822 119.159,-120.214c-0,-66.392 -53.35,-120.214 -119.159,-120.214c-65.81,0 -119.159,53.822 -119.159,120.214c-0,66.392 53.349,120.214 119.159,120.214Z" style="fill:#ff0101;fill-rule:nonzero;"/><path d="M174.406,68.429c10.992,0 19.903,-8.99 19.903,-20.079c0,-11.09 -8.911,-20.08 -19.903,-20.08c-10.993,-0 -19.903,8.99 -19.903,20.08c-0,11.089 8.91,20.079 19.903,20.079Z" style="fill:#020203;fill-rule:nonzero;"/><path d="M168.644,122.592c1.31,2.113 3.667,3.434 6.286,3.434c1.309,0 2.618,-0.264 3.928,-1.056l35.879,-21.665c3.666,-2.114 4.713,-6.87 2.618,-10.305c-2.095,-3.698 -6.809,-4.755 -10.213,-2.642l-29.855,17.967l-14.404,-28.27c-3.928,-3.964 -8.38,-7.927 -12.833,-11.361l-42.687,-21.665c-2.881,-1.321 -6.024,-1.057 -8.381,1.056l-35.617,32.498c-3.142,2.906 -3.404,7.662 -0.523,10.568c2.881,3.171 7.594,3.435 10.475,0.529l32.212,-29.063l22.261,11.361l-38.236,59.71l-87.209,104.098c-3.404,3.963 -3.142,10.304 1.048,13.739c3.928,3.434 10.214,3.17 13.618,-1.057l84.59,-98.549l36.402,8.454l-24.879,39.367c-2.619,4.756 -1.047,10.568 3.666,13.21c4.191,2.378 9.69,1.321 12.571,-2.906l31.95,-50.992c1.834,-2.642 2.096,-6.077 1.048,-8.983c-1.309,-2.906 -3.666,-5.02 -6.809,-5.548l-28.022,-6.605l25.403,-40.16l15.713,24.836Z" style="fill:#020203;fill-rule:nonzero;"/></svg>