<?xml version="1.0" encoding="UTF-8" standalone="no"?><!DOCTYPE svg PUBLIC "-//W3C//DTD SVG 1.1//EN" "http://www.w3.org/Graphics/SVG/1.1/DTD/svg11.dtd"><svg width="100%" height="100%" viewBox="0 0 250 250" version="1.1" xmlns="http://www.w3.org/2000/svg" xmlns:xlink="http://www.w3.org/1999/xlink" xml:space="preserve" xmlns:serif="http://www.serif.com/" style="fill-rule:evenodd;clip-rule:evenodd;stroke-linejoin:round;stroke-miterlimit:2;"><path d="M250,25c0,-13.798 -11.202,-25 -25,-25l-200,0c-13.798,0 -25,11.202 -25,25l0,200c0,13.798 11.202,25 25,25l200,0c13.798,0 25,-11.202 25,-25l0,-200Z" style="fill:#4ab8ff;fill-opacity:0.1;"/><path d="M163.48,101.961c-1.47,-1.471 -3.431,-2.451 -4.902,-2.451c-0.49,-1.961 -0.98,-3.432 -2.451,-4.902c-3.431,-3.432 -9.313,-3.432 -12.744,-0c-2.942,2.941 -3.432,7.843 -0.981,11.275l-10.785,10.293l-5.392,-5.392l-10.784,10.785c-0.98,-0.491 -2.451,-0.491 -3.431,-0.491c-13.726,0 -24.51,10.784 -24.51,24.51c-0,13.726 10.784,24.51 24.51,24.51c13.725,-0 24.51,-10.784 24.51,-24.51c-0,-0.98 -0,-2.451 -0.49,-3.431l10.784,-10.785l-5.392,-5.392l10.294,-10.294c3.431,2.451 8.333,1.961 11.274,-0.98c3.922,-3.431 3.922,-9.314 0.49,-12.745Z" style="fill:#4ab8ff;fill-rule:nonzero;"/></svg>