<?xml version="1.0" encoding="UTF-8" standalone="no"?><!DOCTYPE svg PUBLIC "-//W3C//DTD SVG 1.1//EN" "http://www.w3.org/Graphics/SVG/1.1/DTD/svg11.dtd"><svg width="100%" height="100%" viewBox="0 0 267 267" version="1.1" xmlns="http://www.w3.org/2000/svg" xmlns:xlink="http://www.w3.org/1999/xlink" xml:space="preserve" xmlns:serif="http://www.serif.com/" style="fill-rule:evenodd;clip-rule:evenodd;stroke-linejoin:round;stroke-miterlimit:2;"><path d="M266.667,25c-0,-13.798 -11.202,-25 -25,-25l-216.667,0c-13.798,0 -25,11.202 -25,25l-0,216.667c-0,13.798 11.202,25 25,25l216.667,-0c13.798,-0 25,-11.202 25,-25l-0,-216.667Z" style="fill:#fff;"/><path d="M133.333,91.667c9.205,-0 16.667,-7.462 16.667,-16.667c0,-9.205 -7.462,-16.667 -16.667,-16.667c-9.204,0 -16.666,7.462 -16.666,16.667c-0,9.205 7.462,16.667 16.666,16.667Z" style="fill:#ff0101;fill-rule:nonzero;"/><path d="M208.333,158.333l0,-16.666c-18.666,-0 -34.666,-8 -46.666,-22.334l-11.167,-13.333c-3.167,-3.833 -7.833,-6 -12.75,-6l-8.75,0c-4.917,0 -9.583,2.167 -12.75,6l-11.167,13.333c-12.083,14.334 -28.083,22.334 -46.75,22.334l0,16.666c23.084,0 43.25,-9.75 58.334,-27.083l-0,18.75l-32.334,12.917c-5.583,2.25 -9.333,7.75 -9.333,13.833c0,8.25 6.667,14.917 14.917,14.917l18.416,-0l0,-4.167c0,-11.5 9.334,-20.833 20.834,-20.833l25,-0c2.333,-0 4.166,1.833 4.166,4.166c0,2.334 -1.833,4.167 -4.166,4.167l-25,0c-6.917,0 -12.5,5.583 -12.5,12.5l-0,4.167l60.083,-0c8.25,-0 14.917,-6.667 14.917,-14.917c-0,-6.083 -3.75,-11.583 -9.334,-13.833l-32.333,-12.917l0,-18.75c15.083,17.333 35.25,27.083 58.333,27.083Z" style="fill:#ff0101;fill-rule:nonzero;"/></svg>