<?xml version="1.0" encoding="UTF-8"?>
<!DOCTYPE svg  PUBLIC '-//W3C//DTD SVG 1.1//EN'  'http://www.w3.org/Graphics/SVG/1.1/DTD/svg11.dtd'>
<svg clip-rule="evenodd" fill-rule="evenodd" stroke-linejoin="round" stroke-miterlimit="2" version="1.1" viewBox="0 0 267 267" xml:space="preserve" xmlns="http://www.w3.org/2000/svg"><path d="m266.67 25c-0-13.798-11.202-25-25-25h-216.67c-13.798 0-25 11.202-25 25v216.67c-0 13.798 11.202 25 25 25h216.67c13.798-0 25-11.202 25-25v-216.67z" fill="#fff"/><path d="m154.98 92.683c7.154-0 13.008-5.854 13.008-13.008-0-7.155-5.854-13.008-13.008-13.008-7.155-0-13.008 5.853-13.008 13.008-0 7.154 5.853 13.008 13.008 13.008zm-68.293 42.276c-18.212 0-32.52 14.309-32.52 32.521-0 18.211 14.308 32.52 32.52 32.52 18.211-0 32.521-14.309 32.521-32.52-0-18.212-14.31-32.521-32.521-32.521zm0 55.285c-12.358-0-22.764-10.406-22.764-22.764s10.406-22.765 22.764-22.765 22.764 10.407 22.764 22.765-10.406 22.764-22.764 22.764zm37.723-65.041 15.61-15.61 5.204 5.204c8.455 8.455 19.512 13.658 33.17 13.658v-13.008c-9.756 0-17.561-3.902-23.414-9.756l-12.358-12.358c-3.252-2.601-6.504-3.902-10.407-3.902-3.902-0-7.154 1.301-9.105 3.902l-18.212 18.212c-2.601 2.601-3.902 5.853-3.902 9.105-0 3.903 1.301 7.155 3.902 9.106l20.813 18.212v32.52h13.009v-40.325l-14.31-14.96zm53.334 9.756c-18.212 0-32.52 14.309-32.52 32.521-0 18.211 14.309 32.52 32.52 32.52s32.52-14.309 32.52-32.52c0-18.212-14.309-32.521-32.52-32.521zm-0 55.285c-12.358-0-22.764-10.406-22.764-22.764s10.406-22.765 22.764-22.765 22.764 10.407 22.764 22.765-10.406 22.764-22.764 22.764z" fill="#ff0101" fill-rule="nonzero"/></svg>
