<?xml version="1.0" encoding="UTF-8"?>
<!DOCTYPE svg  PUBLIC '-//W3C//DTD SVG 1.1//EN'  'http://www.w3.org/Graphics/SVG/1.1/DTD/svg11.dtd'>
<svg clip-rule="evenodd" fill-rule="evenodd" stroke-linejoin="round" stroke-miterlimit="2" version="1.1" viewBox="0 0 250 250" xml:space="preserve" xmlns="http://www.w3.org/2000/svg"><path d="m250 25c0-13.798-11.202-25-25-25h-200c-13.798 0-25 11.202-25 25v200c0 13.798 11.202 25 25 25h200c13.798 0 25-11.202 25-25v-200z" fill="#f00" fill-opacity=".07"/><path d="m132.94 120.28c-1e-3 0 3.885-22.854-11.969-32.776-0.478 7.942-4.316 15.305-10.552 20.245-6.771 5.953-19.506 19.338-19.37 33.609-0.1 12.444 6.866 23.868 17.974 29.479 0.393-5.564 3.01-10.736 7.26-14.349 3.602-2.769 5.94-6.87 6.49-11.38 9.482 5.041 15.614 14.696 16.146 25.422v0.068c10.48-4.801 17.378-15.077 17.854-26.594 1.125-13.406-6.219-31.635-12.735-37.594-2.459 5.492-6.28 10.266-11.099 13.87z" fill="#f00" fill-rule="nonzero"/></svg>
