<?xml version="1.0" encoding="UTF-8"?>
<!DOCTYPE svg  PUBLIC '-//W3C//DTD SVG 1.1//EN'  'http://www.w3.org/Graphics/SVG/1.1/DTD/svg11.dtd'>
<svg clip-rule="evenodd" fill-rule="evenodd" stroke-linejoin="round" stroke-miterlimit="2" version="1.1" viewBox="0 0 267 267" xml:space="preserve" xmlns="http://www.w3.org/2000/svg"><path d="m266.67 25c-0-13.798-11.202-25-25-25h-216.67c-13.798 0-25 11.202-25 25v216.67c-0 13.798 11.202 25 25 25h216.67c13.798-0 25-11.202 25-25v-216.67z" fill="#fff"/><path d="m190.47 152.4 9.533-9.533-9.533-9.534-23.8 23.8-57.134-57.133 23.8-23.8-9.533-9.533-9.533 9.533-9.534-9.533-14.266 14.266-9.534-9.533-9.533 9.533 9.533 9.534-14.266 14.266 9.533 9.534-9.533 9.533 9.533 9.533 23.8-23.8 57.133 57.134-23.8 23.8 9.534 9.533 9.533-9.533 9.533 9.533 14.267-14.267 9.533 9.534 9.534-9.534-9.534-9.533 14.267-14.267-9.533-9.533z" fill="#ff0101" fill-rule="nonzero"/></svg>
