<?xml version="1.0" encoding="UTF-8"?>
<!DOCTYPE svg  PUBLIC '-//W3C//DTD SVG 1.1//EN'  'http://www.w3.org/Graphics/SVG/1.1/DTD/svg11.dtd'>
<svg clip-rule="evenodd" fill-rule="evenodd" stroke-linejoin="round" stroke-miterlimit="2" version="1.1" viewBox="0 0 250 250" xml:space="preserve" xmlns="http://www.w3.org/2000/svg"><path d="m250 25c0-13.798-11.202-25-25-25h-200c-13.798 0-25 11.202-25 25v200c0 13.798 11.202 25 25 25h200c13.798 0 25-11.202 25-25v-200z" fill="#fd5181" fill-opacity=".1"/><path d="m88.542 150c-0 8.854 6.77 15.625 15.625 15.625h41.666c8.855 0 15.625-6.771 15.625-15.625h-72.916z" fill="#fd5181" fill-rule="nonzero"/><path d="m161.46 139.58h-72.916c-3.125 0-5.209-2.083-5.209-5.208s2.084-5.208 5.209-5.208h72.916c3.125-0 5.209 2.083 5.209 5.208s-2.084 5.208-5.209 5.208z" fill="#fd5181" fill-rule="nonzero"/><path d="m130.21 87.5h-10.416c-17.188 0-31.25 14.063-31.25 31.25h72.916c0-17.187-14.062-31.25-31.25-31.25zm-15.625 20.833c-3.125 0-5.208-2.083-5.208-5.208s2.083-5.208 5.208-5.208 5.209 2.083 5.209 5.208-2.084 5.208-5.209 5.208zm20.834 0c-0 3.125 2.083 5.209 5.208 5.209s5.208-2.084 5.208-5.209-2.083-5.208-5.208-5.208-5.208 2.083-5.208 5.208z" fill="#fd5181"/></svg>
