<?xml version="1.0" encoding="UTF-8"?>
<!DOCTYPE svg  PUBLIC '-//W3C//DTD SVG 1.1//EN'  'http://www.w3.org/Graphics/SVG/1.1/DTD/svg11.dtd'>
<svg clip-rule="evenodd" fill-rule="evenodd" stroke-linejoin="round" stroke-miterlimit="2" version="1.1" viewBox="0 0 267 267" xml:space="preserve" xmlns="http://www.w3.org/2000/svg"><path d="m266.67 25c-0-13.798-11.202-25-25-25h-216.67c-13.798 0-25 11.202-25 25v216.67c-0 13.798 11.202 25 25 25h216.67c13.798-0 25-11.202 25-25v-216.67z" fill="#fff"/><path d="m122.22 111.11-18.056 18.056c1.722 0.666 3.111 1.5 4.278 2.166 2.055 1.278 3.278 2 6.388 2 3.112 0 4.334-0.722 6.389-2 2.556-1.5 6.001-3.555 12.167-3.555 6.167-0 9.611 2.055 12.111 3.555 2.056 1.222 3.333 2 6.389 2s4.334-0.722 6.389-2c0.667-0.389 1.444-0.833 2.278-1.278l-35.667-35.611c-8.611-8.611-16.556-11.166-30.444-11.111v13.889c10.111-0.055 16.055 2.167 22.222 8.333l5.556 5.556zm66.666 47.222h-0.111 0.111zm-92.5-5.555c3.056-0 4.334 0.777 6.389 2 2.5 1.5 5.945 3.555 12.111 3.555 6.167 0 9.611-2.055 12.111-3.555 2.056-1.278 3.278-2 6.389-2 3.056-0 4.334 0.777 6.389 2 2.5 1.5 5.944 3.555 12.111 3.555s9.611-2.055 12.111-3.555c2.056-1.278 3.278-2 6.389-2 3.056-0 4.333 0.777 6.389 2 2.5 1.5 5.889 3.5 12 3.555v-11.111c-3.055 0-4.333-0.778-6.389-2-2.5-1.5-5.944-3.555-12.111-3.555s-9.611 2.055-12.111 3.555c-2.056 1.278-3.334 2-6.389 2-3.056 0-4.333-0.778-6.389-2-2.5-1.5-5.944-3.555-12.111-3.555s-9.611 2.055-12.111 3.555c-2.056 1.278-3.278 2-6.389 2-3.056 0-4.333-0.778-6.389-2-2.5-1.5-5.944-3.555-12.111-3.555s-9.611 2.055-12.111 3.555c-2.056 1.278-3.278 2-6.389 2v11.111c6.167 0 9.611-2.055 12.222-3.555 2.056-1.278 3.333-2 6.389-2zm74 13.889c-6.166-0-9.611 2.055-12.111 3.555-2.055 1.278-3.333 2-6.389 2s-4.333-0.778-6.389-2c-2.5-1.5-5.944-3.555-12.111-3.555-6.166-0-9.611 2.055-12.166 3.555-2.056 1.278-3.278 2-6.39 2-3.111 0-4.333-0.722-6.388-2-2.5-1.5-5.945-3.555-12.112-3.555-6.166-0-9.611 2.055-12.166 3.555-2.056 1.278-3.278 2-6.389 2v11.111c6.167 0 9.611-2.055 12.167-3.555 2.055-1.278 3.333-2 6.388-2 3.056-0 4.334 0.722 6.389 2 2.5 1.5 5.945 3.555 12.111 3.555 6.167 0 9.612-2.055 12.167-3.555 2.056-1.278 3.278-2 6.389-2 3.056-0 4.333 0.777 6.389 2 2.5 1.5 5.944 3.555 12.111 3.555s9.556-2.055 12.111-3.555c2.056-1.278 3.278-2 6.389-2 3.056-0 4.333 0.777 6.389 2 2.5 1.5 5.944 3.555 12.111 3.555v-11.111c-3.111 0-4.333-0.722-6.389-2-2.5-1.5-5.944-3.555-12.111-3.555z" fill="#ff0101" fill-rule="nonzero"/><path d="m158.33 111.11c7.671 0 13.889-6.218 13.889-13.889 0-7.67-6.218-13.889-13.889-13.889-7.67 0-13.888 6.219-13.888 13.889-0 7.671 6.218 13.889 13.888 13.889z" fill="#ff0101" fill-rule="nonzero"/></svg>
