<?xml version="1.0" encoding="UTF-8"?>
<!DOCTYPE svg  PUBLIC '-//W3C//DTD SVG 1.1//EN'  'http://www.w3.org/Graphics/SVG/1.1/DTD/svg11.dtd'>
<svg clip-rule="evenodd" fill-rule="evenodd" stroke-linejoin="round" stroke-miterlimit="2" version="1.1" viewBox="0 0 267 267" xml:space="preserve" xmlns="http://www.w3.org/2000/svg"><path d="m266.67 25c-0-13.798-11.202-25-25-25h-216.67c-13.798 0-25 11.202-25 25v216.67c-0 13.798 11.202 25 25 25h216.67c13.798-0 25-11.202 25-25v-216.67z" fill="#fff"/><path d="m133.33 91.667c9.205-0 16.667-7.462 16.667-16.667s-7.462-16.667-16.667-16.667c-9.204 0-16.666 7.462-16.666 16.667s7.462 16.667 16.666 16.667z" fill="#ff0101" fill-rule="nonzero"/><path d="m208.33 158.33v-16.666c-18.666-0-34.666-8-46.666-22.334l-11.167-13.333c-3.167-3.833-7.833-6-12.75-6h-8.75c-4.917 0-9.583 2.167-12.75 6l-11.167 13.333c-12.083 14.334-28.083 22.334-46.75 22.334v16.666c23.084 0 43.25-9.75 58.334-27.083v18.75l-32.334 12.917c-5.583 2.25-9.333 7.75-9.333 13.833 0 8.25 6.667 14.917 14.917 14.917h18.416v-4.167c0-11.5 9.334-20.833 20.834-20.833h25c2.333-0 4.166 1.833 4.166 4.166 0 2.334-1.833 4.167-4.166 4.167h-25c-6.917 0-12.5 5.583-12.5 12.5v4.167h60.083c8.25-0 14.917-6.667 14.917-14.917-0-6.083-3.75-11.583-9.334-13.833l-32.333-12.917v-18.75c15.083 17.333 35.25 27.083 58.333 27.083z" fill="#ff0101" fill-rule="nonzero"/></svg>
